<svg version="1" xmlns="http://www.w3.org/2000/svg" width="2666.667" height="2666.667" viewBox="0 0 2000.000000 2000.000000"><path d="M903.5 435.6c-29.1 4.1-53.1 7.7-53.4 7.9-.4.5 21.7 166.6 22.3 167.2.5.5 18.9-1.9 20.2-2.6.7-.4-.5-12.2-3.9-36.9-2.7-20-4.6-36.6-4.3-36.9.3-.3 17.1-2.8 37.3-5.6 20.2-2.7 37.2-5.3 37.7-5.7.7-.7-1-17.9-1.9-18.8-.2-.2-17.3 2-38 4.8-20.7 2.9-37.8 5-38.1 4.8-.8-.8-7.6-52.9-7-53.5.3-.3 19.5-3.2 42.6-6.4s42.4-6 42.9-6.3c.7-.5.2-5.9-1.5-16.4-.3-1.7-.8-3.1-1.2-3.1-.4.1-24.5 3.5-53.7 7.5zM1061.5 435c-5 9.8-71.5 159.3-71 159.8.3.3 5.3 1.1 11.2 1.7l10.6 1.1 3.2-7.1c1.7-3.8 5.1-11.7 7.5-17.5 2.4-5.8 4.7-10.9 5.1-11.3.5-.6 69.6 5.9 70.6 6.7 0 0 1.9 8.9 4 19.6l3.9 19.5 10.9 1.2c6 .7 11.1 1 11.4.7.6-.5-36.9-172.6-37.8-173.5-.3-.4-6.8-1.3-14.4-2.1l-13.9-1.4-1.3 2.6zm23.4 65.5c5.2 26.2 9.1 47.8 8.8 48.1-.7.7-52-4.4-55.3-5.4-2-.7-1.1-3.2 17-45.4 10.5-24.6 19.3-44.8 19.6-44.8.3 0 4.7 21.4 9.9 47.5zM707.8 488.9c-27.4 11.9-49.8 21.9-49.8 22.2 0 .5 53.3 127.2 63.2 150.1 1.1 2.6 2.4 4.8 2.8 4.8.4 0 22.1-9.3 48.1-20.6 26.1-11.3 48.4-21 49.6-21.5l2.3-.8-3.6-8.3c-1.9-4.6-3.8-8.6-4.2-9-.4-.4-18.2 6.9-39.7 16.2-21.4 9.4-39.5 17-40.1 17-1.1 0-21.9-48.2-21.4-49.7.2-.4 15.7-7.5 34.4-15.6s34.5-15.2 35-15.7c.8-.8-4.4-14.9-6.4-17.2-.3-.5-16.1 6-35 14.2-19 8.2-35 15-35.7 15-1 0-3.7-5.9-17.9-39.6l-4.2-10.2 39.9-17.3c21.9-9.5 39.9-17.7 39.9-18.2 0-1.1-6.1-16-6.9-16.8-.3-.3-23 9.1-50.3 21zM1240 478.5c-14.2 3-26.3 9.9-37.1 21.2-28.9 30.1-39.3 79.6-23.5 111.2 14.6 28.8 51.6 46 82.6 38.2 4.7-1.1 11.2-3.4 14.5-5 6.3-3.2 19.2-13.2 20.2-15.8.4-1-1.8-3.9-6.5-8.6l-7.1-7.1-5.1 4.8c-2.8 2.6-8.5 6.4-12.8 8.4-7 3.3-8.6 3.7-17.8 4-11.8.5-18.5-1-28.1-6.4-17.4-9.7-27.6-29.9-25.8-51.4 1.8-22.9 11.7-45.1 26.2-59.1 17-16.4 36.9-19.4 59.1-8.8 17.6 8.4 28.2 24.8 28.2 43.5v4.4h3.8c2 0 6.8-.3 10.5-.7l6.8-.6-.6-6.6c-1-9.7-4.1-20.5-8.3-28.6-5.3-10.1-18.1-22.8-28.7-28.2-18-9.2-34.8-12.1-50.5-8.8zM1392.2 550c-2.8 3.8-5.3 7.3-5.4 7.9-.2.5 9.5 8.4 21.5 17.5 11.9 9.2 21.7 16.9 21.7 17.1 0 .3-20 27.2-44.5 60l-44.4 59.5 8.5 6.6c4.8 3.7 8.9 6.3 9.4 5.8.4-.5 20.2-27 44-58.9s43.6-58.4 44-58.9c.5-.4 10.6 6.6 22.5 15.8 11.9 9.1 21.9 16.6 22.3 16.6.9-.1 10.7-13.5 10.7-14.8 0-.7-103.9-81.2-104.9-81.2-.1 0-2.5 3.1-5.4 7zM537.4 590.2c-28.5 22.5-52.1 41.2-52.3 41.4-.9.8 11.2 15.3 12.3 14.7.6-.4 10.4-8 21.7-17 11.4-9 20.9-16.3 21.2-16.3.2 0 20.8 26.5 45.8 58.9l45.3 58.9 8-6.3c4.4-3.4 8.1-6.6 8.3-7.1.2-.5-20-27.2-44.7-59.3-24.8-32.1-44.9-58.8-44.8-59.2.2-.4 9.5-8 20.8-16.9 11.3-8.9 20.9-16.5 21.3-16.9.4-.4-1.9-4.2-5.1-8.4l-5.9-7.6-51.9 41.1zM1533.7 694.1c-5.6 1.9-13 5.9-14 7.6-.3.5 1.8 4.5 4.6 8.9l5.2 8.1 5.4-2.9c14.5-7.6 32.2-.2 41.2 17.4 2.8 5.4 3.3 7.4 3.3 13.8.1 6.5-.3 8.2-2.8 12.8-8.2 14.7-26.9 18.6-38.7 8-2-1.7-9.4-10.5-11.6-13.7-.4-.5-14.3 10.8-14.3 11.7 0 .4 2.3 3.5 5 7 7.1 9.2 10.2 16 10.8 24.1.9 12.9-5.1 23.1-17 29-5.1 2.6-7.3 3.1-13.3 3.1-6.3 0-8.2-.5-14.2-3.5-8.8-4.4-16.3-12.1-20.6-21.2-2.9-6.2-3.2-7.7-3.2-16.3 0-10.7 1.8-15.4 8.2-22.2l3.6-3.7-3.1-3.8c-1.7-2.1-4.8-5.5-6.9-7.5l-3.9-3.8-4.6 4.8c-20.2 20.5-19.2 49.1 2.7 75.5 15.3 18.5 36.6 26.5 55.2 20.9 17.5-5.3 31.7-20.4 34.2-36.4 1.2-7-.1-14.5-3.7-22.3l-3-6.2 5.5 3.3c17.7 10.6 42.1 1.7 52.4-19.1 9.3-18.9 1.1-45.9-19.1-63.2-13.1-11.3-29.2-15.1-43.3-10.2zM443.2 697.1c-2.8.5-8 2.2-11.5 3.7-11.1 5.1-16.9 11-38.6 39.6-11.2 14.7-20.1 27-19.9 27.5.7 2 132 103.3 132.7 102.5 2.7-2.9 12.3-16.5 12-16.8-.2-.2-13.2-10.4-28.9-22.6-15.7-12.1-28.6-22.5-28.8-22.9-.1-.4 4.3-6.8 9.9-14.2 5.6-7.4 10.3-13.5 10.3-13.6.1 0 17.9 3.4 39.6 7.8 21.7 4.3 40.1 7.9 41 7.8 1.4 0 15-16.9 15-18.7 0-.4-18.8-4.1-41.7-8.1-23-4-42-7.5-42.2-7.7-.2-.2.3-2.9 1.2-6.1 2.6-9.7 2.9-14.4 1.3-21.9-1.8-9.1-4.2-13.7-10.6-20.7-11.1-12.2-26.3-18-40.8-15.6zm15.5 22.8c5.7 2.6 12.8 9.3 15.3 14.5 2.7 5.7 2.6 13.5-.3 20.6-2.6 6.4-28.5 41.2-29.9 40.4-.6-.4-10.4-8-21.8-16.9l-20.9-16.3 12-15.8c14.5-19.1 17.8-22.7 24.3-25.9 6.3-3.1 15.1-3.4 21.3-.6zM972.5 765.6c-26.2 2.6-45.4 5.7-66.1 10.8-103.8 25.6-194 92.6-249.3 185.1-79 132.1-75.6 298.2 8.5 427.3 49.7 76.2 124.3 133.8 210.4 162.5 25.5 8.6 54.6 14.9 83.5 18.3 21 2.5 67 2.5 88 0 56.3-6.6 108.9-23.6 155.1-50.2 144.6-83 223.3-242.9 200.4-407.4-19.4-139.4-111.6-259.9-241-315-34.3-14.6-68.5-23.9-109-29.6-11-1.5-69.9-2.8-80.5-1.8zM1040 788c49.7 5 95.6 18.6 139.5 41.3 105.8 54.8 180.9 157.9 200.4 275.2 4 24 4.6 32.5 4.6 64 0 33.2-1.1 45.6-6.1 72-11.7 61.1-38.2 118.2-78.2 168.1-10.8 13.5-33.2 36.7-47.1 48.7-58.7 50.7-129.4 81.5-208.6 90.9-14.7 1.7-67.3 1.7-82 0-101-12-188.7-59.3-252.8-136.2-77-92.3-105.7-218.1-76.7-335.5 42.7-172.9 200.1-293.8 377.5-289.9 10.5.2 23.7.8 29.5 1.4zM1627.5 858.9l-41 10.8-.3 10-.3 10.1 3.3.7c10.3 2.3 21.7 11.7 26.5 22 2.4 5.2 2.8 7.2 2.8 15 0 11-2 16-9.5 23.9-15.7 16.6-42.2 17.9-56.1 2.8-6.6-7.1-9.4-14.2-9.3-23.8 0-7.2.4-8.9 3.7-15.8 2.5-5.3 5.5-9.6 9.5-13.5l5.8-5.8-6.8-7.6-6.7-7.6-5.5 5c-10.4 9.5-17.7 24.6-19.1 39.4-2 21.1 11.3 45.4 30.1 55.3 27.5 14.4 65.5 1.4 78.9-27 7-15 6.6-30.8-1.2-46.2-3.4-6.8-13.4-17-19.6-20.1-3-1.4-4.3-2.5-3.1-2.5 1 0 12.5-2.9 25.4-6.4 12.9-3.6 23.8-6.1 24.2-5.8.3.4 6.6 14.2 13.8 30.7 7.3 16.5 13.6 30.4 14.1 30.9.7.8 15.5-5 16.4-6.4.4-.7-33.1-77.1-34.3-78.1-.4-.4-19.1 4.2-41.7 10zM310.2 887.5c-.4.5-3.1 6.6-5.9 13.5l-5.3 12.5 2.9 2.5c51.5 45.4 129.4 113.6 130 113.8.8.3 9.7-20.6 9-21.2-.9-.7-28.5-23.9-29.2-24.5-.7-.7 24.5-64.5 26.2-66.3.4-.4 7.8-.1 16.6.7 8.8.8 17.6 1.5 19.6 1.5h3.6l4-10.3c2.3-5.6 3.9-10.4 3.7-10.6-.2-.2-39.6-3.2-87.5-6.5-58.4-4.1-87.3-5.8-87.7-5.1zm61.8 24c23.4 2 43.5 3.8 44.7 4 2 .5 1.6 1.7-8.4 26.2-5.7 14.2-10.7 26.4-11 27-.3.7-.8 1.3-1.2 1.3-.3 0-12.1-9.7-26.1-21.6-14-11.9-30.9-26.2-37.4-31.7l-12-10 4.5.6c2.4.4 23.5 2.3 46.9 4.2z"/></svg>